<?xml version="1.0" encoding="utf-8" ?><svg xmlns="http://www.w3.org/2000/svg" xmlns:xlink="http://www.w3.org/1999/xlink" width="120" height="59" viewBox="0 0 120 59"><path fill="#000E20" transform="scale(0.111111 0.112167)" d="M0 0L1080 0L1080 526L0 526L0 0Z"/><path fill="#FEC500" transform="scale(0.111111 0.112167)" d="M840.315 185.369C859.736 183.991 872.872 188.203 887.676 200.605L887.708 188.292L927.045 188.304L927.053 289.184C927.068 302.712 927.85 329.962 926.604 342.614C925.969 349.67 924.27 356.588 921.564 363.135C915.221 378.431 902.966 390.512 887.585 396.631C862.858 406.728 828.481 403.746 807.523 386.447C799.106 379.499 794.458 372.242 790.397 362.288C789.385 359.224 788.679 356.099 787.918 352.964L828.575 352.948C835.322 364.355 846.641 368.829 859.363 367.921C885.987 366.022 887.756 345.999 887.736 325.63L887.681 305.674C877.122 314.559 868.06 319.271 854.07 320.853C836.648 322.876 819.135 317.904 805.373 307.027C760.898 271.212 778.26 191.969 840.315 185.369Z"/><path fill="#000E20" transform="scale(0.111111 0.112167)" d="M849.077 220.967C866.907 217.976 883.763 230.078 886.639 247.936C889.515 265.793 877.311 282.579 859.444 285.342C841.737 288.08 825.142 276.004 822.292 258.307C819.442 240.61 831.407 223.931 849.077 220.967Z"/><path fill="#FEC500" transform="scale(0.111111 0.112167)" d="M507.859 185.376C509.133 185.306 510.408 185.246 511.683 185.196C528.876 184.546 542.34 189.732 554.856 201.367L554.934 188.292L594.501 188.301L594.477 325.023L554.912 325.025L554.887 311.904L549.715 316.387C541.42 322.747 531.532 326.693 521.138 327.79C504.293 329.719 487.37 324.895 474.072 314.373C428.534 277.927 444.203 192.274 507.859 185.376Z"/><path fill="#000E20" transform="scale(0.111111 0.112167)" d="M516.96 223.484C535.311 220.746 552.39 233.456 555.048 251.827C557.705 270.198 544.928 287.23 526.553 289.809C508.291 292.373 491.393 279.684 488.752 261.425C486.111 243.165 498.72 226.205 516.96 223.484Z"/><path fill="#FEC500" transform="scale(0.111111 0.112167)" d="M699.388 185.368C725.199 182.42 750.964 196.187 756.491 222.622C759.118 235.185 758.032 252.226 758.014 265.297L758.035 325.03L718.74 325.013L718.787 274.427C718.789 265.657 719.156 256.219 718.551 247.525C716.952 224.593 695.671 218.133 677.106 226.953C675.132 228.242 673.804 229.245 672.114 230.918C668.782 234.239 666.47 238.443 665.449 243.036C663.937 249.784 664.474 266.452 664.48 274.076L664.488 325.022L625.267 325.004L625.295 188.303L664.498 188.302L664.494 201.059C675.972 191.179 684.157 187.041 699.388 185.368Z"/><path fill="#FEC500" transform="scale(0.111111 0.112167)" d="M152.836 140.281L226.947 140.27C232.515 154.151 237.954 169.851 243.189 183.971L271.025 259.293C262.525 261.15 259.233 262.327 252.068 267.169C244.416 273.451 241.389 278.734 238.171 287.933C222.69 249.816 207.672 210.157 192.651 171.762L170.014 171.82L152.836 140.281Z"/><path fill="#FEC500" transform="scale(0.111111 0.112167)" d="M384.966 188.296L424.292 188.302L424.246 324.87C422.205 325.173 414.138 325.061 411.785 325.066L384.954 325.029L384.966 188.296Z"/><path fill="#FEC500" transform="scale(0.111111 0.112167)" d="M323.256 188.275L368.997 188.304C353.562 218.404 336.22 249.365 320.216 279.332L316.09 287.059C314.763 283.03 312.884 279.204 310.508 275.691C302.986 264.798 293.202 261.174 280.784 258.93L323.256 188.275Z"/><path fill="#FEC500" transform="scale(0.111111 0.112167)" d="M275.557 273.817C289.448 272.891 301.446 283.435 302.319 297.335C303.192 311.236 292.607 323.199 278.71 324.02C264.887 324.836 253.007 314.316 252.139 300.49C251.27 286.664 261.74 274.738 275.557 273.817Z"/><path fill="#FEC500" transform="scale(0.111111 0.112167)" d="M401.533 123.474C414.88 121.685 427.145 131.069 428.915 144.423C430.686 157.778 421.289 170.036 407.938 171.79C394.613 173.54 382.388 164.161 380.621 150.831C378.854 137.502 388.212 125.259 401.533 123.474Z"/></svg>